<?xml version="1.0" encoding="utf-8"?>
<!-- Generator: Adobe Illustrator 22.1.0, SVG Export Plug-In . SVG Version: 6.00 Build 0)  -->
<svg version="1.1" id="Layer_1" xmlns="http://www.w3.org/2000/svg" xmlns:xlink="http://www.w3.org/1999/xlink" x="0px" y="0px"
	 viewBox="0 0 1123 730" style="enable-background:new 0 0 1123 730;" xml:space="preserve">
<style type="text/css">
	.st0{fill:#F4F4F4;}
	.st1{fill:#E0E0E0;}
	.st2{fill:#F9F7F7;}
	.st3{fill:#EDEBEB;}
	.st4{fill:#F1F1F1;}
	.st5{fill:#EFEFEF;}
	.st6{fill:#E9E9E9;}
</style>
<g>
	<polygon class="st0" points="2.7,119.5 61,-1 119.3,119.5 	"/>
	<path class="st1" d="M61,0.2L118.5,119l-115,0L61,0.2 M61-2.1L1.9,120l118.2,0L61-2.1L61-2.1z"/>
</g>
<g>
	<polygon class="st2" points="120.7,119.5 179,-1 237.3,119.5 	"/>
	<path class="st1" d="M179,0.2L236.5,119l-115,0L179,0.2 M179-2.1L119.9,120l118.2,0L179-2.1L179-2.1z"/>
</g>
<g>
	<polygon class="st3" points="238.7,119.5 297,-1 355.3,119.5 	"/>
	<path class="st1" d="M297,0.2L354.5,119l-115,0L297,0.2 M297-2.1L237.9,120l118.2,0L297-2.1L297-2.1z"/>
</g>
<g>
	<polygon class="st0" points="356.7,119.5 415,-1 473.3,119.5 	"/>
	<path class="st1" d="M415,0.2L472.5,119l-115,0L415,0.2 M415-2.1L355.9,120l118.2,0L415-2.1L415-2.1z"/>
</g>
<g>
	<polygon class="st2" points="474.7,119.5 533,-1 591.3,119.5 	"/>
	<path class="st1" d="M533,0.2L590.5,119l-115,0L533,0.2 M533-2.1L473.9,120l118.2,0L533-2.1L533-2.1z"/>
</g>
<g>
	<polygon class="st3" points="592.7,119.5 651,-1 709.3,119.5 	"/>
	<path class="st1" d="M651,0.2L708.5,119l-115,0L651,0.2 M651-2.1L591.9,120l118.2,0L651-2.1L651-2.1z"/>
</g>
<g>
	<polygon class="st0" points="710.7,119.5 769,-1 827.3,119.5 	"/>
	<path class="st1" d="M769,0.2L826.5,119l-115,0L769,0.2 M769-2.1L709.9,120l118.2,0L769-2.1L769-2.1z"/>
</g>
<g>
	<polygon class="st2" points="828.7,119.5 887,-1 945.3,119.5 	"/>
	<path class="st1" d="M887,0.2L944.5,119l-115,0L887,0.2 M887-2.1L827.9,120l118.2,0L887-2.1L887-2.1z"/>
</g>
<g>
	<polygon class="st4" points="61.7,241.5 120,121 178.3,241.5 	"/>
	<path class="st1" d="M120,122.2L177.5,241l-115,0L120,122.2 M120,119.9L60.9,242l118.2,0L120,119.9L120,119.9z"/>
</g>
<g>
	<polygon class="st5" points="179.7,241.5 238,121 296.3,241.5 	"/>
	<path class="st1" d="M238,122.2L295.5,241l-115,0L238,122.2 M238,119.9L178.9,242l118.2,0L238,119.9L238,119.9z"/>
</g>
<g>
	<polygon class="st6" points="297.7,241.5 356,121 414.3,241.5 	"/>
	<path class="st1" d="M356,122.2L413.5,241l-115,0L356,122.2 M356,119.9L296.9,242l118.2,0L356,119.9L356,119.9z"/>
</g>
<g>
	<polygon class="st4" points="415.7,241.5 474,121 532.3,241.5 	"/>
	<path class="st1" d="M474,122.2L531.5,241l-115,0L474,122.2 M474,119.9L414.9,242l118.2,0L474,119.9L474,119.9z"/>
</g>
<g>
	<polygon class="st5" points="533.7,241.5 592,121 650.3,241.5 	"/>
	<path class="st1" d="M592,122.2L649.5,241l-115,0L592,122.2 M592,119.9L532.9,242l118.2,0L592,119.9L592,119.9z"/>
</g>
<g>
	<polygon class="st6" points="651.7,241.5 710,121 768.3,241.5 	"/>
	<path class="st1" d="M710,122.2L767.5,241l-115,0L710,122.2 M710,119.9L650.9,242l118.2,0L710,119.9L710,119.9z"/>
</g>
<g>
	<polygon class="st4" points="769.7,241.5 828,121 886.3,241.5 	"/>
	<path class="st1" d="M828,122.2L885.5,241l-115,0L828,122.2 M828,119.9L768.9,242l118.2,0L828,119.9L828,119.9z"/>
</g>
<g>
	<polygon class="st5" points="887.7,241.5 946,121 1004.3,241.5 	"/>
	<path class="st1" d="M946,122.2l57.5,118.8l-115,0L946,122.2 M946,119.9L886.9,242l118.2,0L946,119.9L946,119.9z"/>
</g>
<g>
	<polygon class="st0" points="2.7,363.5 61,243 119.3,363.5 	"/>
	<path class="st1" d="M61,244.2L118.5,363l-115,0L61,244.2 M61,241.9L1.9,364l118.2,0L61,241.9L61,241.9z"/>
</g>
<g>
	<polygon class="st2" points="120.7,363.5 179,243 237.3,363.5 	"/>
	<path class="st1" d="M179,244.2L236.5,363l-115,0L179,244.2 M179,241.9L119.9,364l118.2,0L179,241.9L179,241.9z"/>
</g>
<g>
	<polygon class="st3" points="238.7,363.5 297,243 355.3,363.5 	"/>
	<path class="st1" d="M297,244.2L354.5,363l-115,0L297,244.2 M297,241.9L237.9,364l118.2,0L297,241.9L297,241.9z"/>
</g>
<g>
	<polygon class="st0" points="356.7,363.5 415,243 473.3,363.5 	"/>
	<path class="st1" d="M415,244.2L472.5,363l-115,0L415,244.2 M415,241.9L355.9,364l118.2,0L415,241.9L415,241.9z"/>
</g>
<g>
	<polygon class="st2" points="474.7,363.5 533,243 591.3,363.5 	"/>
	<path class="st1" d="M533,244.2L590.5,363l-115,0L533,244.2 M533,241.9L473.9,364l118.2,0L533,241.9L533,241.9z"/>
</g>
<g>
	<polygon class="st3" points="592.7,363.5 651,243 709.3,363.5 	"/>
	<path class="st1" d="M651,244.2L708.5,363l-115,0L651,244.2 M651,241.9L591.9,364l118.2,0L651,241.9L651,241.9z"/>
</g>
<g>
	<polygon class="st0" points="710.7,363.5 769,243 827.3,363.5 	"/>
	<path class="st1" d="M769,244.2L826.5,363l-115,0L769,244.2 M769,241.9L709.9,364l118.2,0L769,241.9L769,241.9z"/>
</g>
<g>
	<polygon class="st2" points="828.7,363.5 887,243 945.3,363.5 	"/>
	<path class="st1" d="M887,244.2L944.5,363l-115,0L887,244.2 M887,241.9L827.9,364l118.2,0L887,241.9L887,241.9z"/>
</g>
<g>
	<polygon class="st4" points="61.7,485.5 120,365 178.3,485.5 	"/>
	<path class="st1" d="M120,366.2L177.5,485l-115,0L120,366.2 M120,363.9L60.9,486l118.2,0L120,363.9L120,363.9z"/>
</g>
<g>
	<polygon class="st5" points="179.7,485.5 238,365 296.3,485.5 	"/>
	<path class="st1" d="M238,366.2L295.5,485l-115,0L238,366.2 M238,363.9L178.9,486l118.2,0L238,363.9L238,363.9z"/>
</g>
<g>
	<polygon class="st6" points="297.7,485.5 356,365 414.3,485.5 	"/>
	<path class="st1" d="M356,366.2L413.5,485l-115,0L356,366.2 M356,363.9L296.9,486l118.2,0L356,363.9L356,363.9z"/>
</g>
<g>
	<polygon class="st4" points="415.7,485.5 474,365 532.3,485.5 	"/>
	<path class="st1" d="M474,366.2L531.5,485l-115,0L474,366.2 M474,363.9L414.9,486l118.2,0L474,363.9L474,363.9z"/>
</g>
<g>
	<polygon class="st5" points="533.7,485.5 592,365 650.3,485.5 	"/>
	<path class="st1" d="M592,366.2L649.5,485l-115,0L592,366.2 M592,363.9L532.9,486l118.2,0L592,363.9L592,363.9z"/>
</g>
<g>
	<polygon class="st6" points="651.7,485.5 710,365 768.3,485.5 	"/>
	<path class="st1" d="M710,366.2L767.5,485l-115,0L710,366.2 M710,363.9L650.9,486l118.2,0L710,363.9L710,363.9z"/>
</g>
<g>
	<polygon class="st4" points="769.7,485.5 828,365 886.3,485.5 	"/>
	<path class="st1" d="M828,366.2L885.5,485l-115,0L828,366.2 M828,363.9L768.9,486l118.2,0L828,363.9L828,363.9z"/>
</g>
<g>
	<polygon class="st5" points="887.7,485.5 946,365 1004.3,485.5 	"/>
	<path class="st1" d="M946,366.2l57.5,118.8l-115,0L946,366.2 M946,363.9L886.9,486l118.2,0L946,363.9L946,363.9z"/>
</g>
<g>
	<polygon class="st0" points="2.7,607.5 61,487 119.3,607.5 	"/>
	<path class="st1" d="M61,488.2L118.5,607l-115,0L61,488.2 M61,485.9L1.9,608l118.2,0L61,485.9L61,485.9z"/>
</g>
<g>
	<polygon class="st2" points="120.7,607.5 179,487 237.3,607.5 	"/>
	<path class="st1" d="M179,488.2L236.5,607l-115,0L179,488.2 M179,485.9L119.9,608l118.2,0L179,485.9L179,485.9z"/>
</g>
<g>
	<polygon class="st3" points="238.7,607.5 297,487 355.3,607.5 	"/>
	<path class="st1" d="M297,488.2L354.5,607l-115,0L297,488.2 M297,485.9L237.9,608l118.2,0L297,485.9L297,485.9z"/>
</g>
<g>
	<polygon class="st0" points="356.7,607.5 415,487 473.3,607.5 	"/>
	<path class="st1" d="M415,488.2L472.5,607l-115,0L415,488.2 M415,485.9L355.9,608l118.2,0L415,485.9L415,485.9z"/>
</g>
<g>
	<polygon class="st2" points="474.7,607.5 533,487 591.3,607.5 	"/>
	<path class="st1" d="M533,488.2L590.5,607l-115,0L533,488.2 M533,485.9L473.9,608l118.2,0L533,485.9L533,485.9z"/>
</g>
<g>
	<polygon class="st3" points="592.7,607.5 651,487 709.3,607.5 	"/>
	<path class="st1" d="M651,488.2L708.5,607l-115,0L651,488.2 M651,485.9L591.9,608l118.2,0L651,485.9L651,485.9z"/>
</g>
<g>
	<polygon class="st0" points="710.7,607.5 769,487 827.3,607.5 	"/>
	<path class="st1" d="M769,488.2L826.5,607l-115,0L769,488.2 M769,485.9L709.9,608l118.2,0L769,485.9L769,485.9z"/>
</g>
<g>
	<polygon class="st2" points="828.7,607.5 887,487 945.3,607.5 	"/>
	<path class="st1" d="M887,488.2L944.5,607l-115,0L887,488.2 M887,485.9L827.9,608l118.2,0L887,485.9L887,485.9z"/>
</g>
<g>
	<polygon class="st4" points="61.7,729.5 120,609 178.3,729.5 	"/>
	<path class="st1" d="M120,610.2L177.5,729l-115,0L120,610.2 M120,607.9L60.9,730l118.2,0L120,607.9L120,607.9z"/>
</g>
<g>
	<polygon class="st5" points="179.7,729.5 238,609 296.3,729.5 	"/>
	<path class="st1" d="M238,610.2L295.5,729l-115,0L238,610.2 M238,607.9L178.9,730l118.2,0L238,607.9L238,607.9z"/>
</g>
<g>
	<polygon class="st6" points="297.7,729.5 356,609 414.3,729.5 	"/>
	<path class="st1" d="M356,610.2L413.5,729l-115,0L356,610.2 M356,607.9L296.9,730l118.2,0L356,607.9L356,607.9z"/>
</g>
<g>
	<polygon class="st4" points="415.7,729.5 474,609 532.3,729.5 	"/>
	<path class="st1" d="M474,610.2L531.5,729l-115,0L474,610.2 M474,607.9L414.9,730l118.2,0L474,607.9L474,607.9z"/>
</g>
<g>
	<polygon class="st5" points="533.7,729.5 592,609 650.3,729.5 	"/>
	<path class="st1" d="M592,610.2L649.5,729l-115,0L592,610.2 M592,607.9L532.9,730l118.2,0L592,607.9L592,607.9z"/>
</g>
<g>
	<polygon class="st6" points="651.7,729.5 710,609 768.3,729.5 	"/>
	<path class="st1" d="M710,610.2L767.5,729l-115,0L710,610.2 M710,607.9L650.9,730l118.2,0L710,607.9L710,607.9z"/>
</g>
<g>
	<polygon class="st4" points="769.7,729.5 828,609 886.3,729.5 	"/>
	<path class="st1" d="M828,610.2L885.5,729l-115,0L828,610.2 M828,607.9L768.9,730l118.2,0L828,607.9L828,607.9z"/>
</g>
<g>
	<polygon class="st5" points="887.7,729.5 946,609 1004.3,729.5 	"/>
	<path class="st1" d="M946,610.2l57.5,118.8l-115,0L946,610.2 M946,607.9L886.9,730l118.2,0L946,607.9L946,607.9z"/>
</g>
<g>
	<polygon class="st3" points="946.7,119.5 1005,-1 1063.3,119.5 	"/>
	<path class="st1" d="M1005,0.2l57.5,118.8l-115,0L1005,0.2 M1005-2.1L945.9,120l118.2,0L1005-2.1L1005-2.1z"/>
</g>
<g>
	<polygon class="st3" points="946.7,363.5 1005,243 1063.3,363.5 	"/>
	<path class="st1" d="M1005,244.2l57.5,118.8l-115,0L1005,244.2 M1005,241.9L945.9,364l118.2,0L1005,241.9L1005,241.9z"/>
</g>
<g>
	<polygon class="st3" points="946.7,607.5 1005,487 1063.3,607.5 	"/>
	<path class="st1" d="M1005,488.2l57.5,118.8l-115,0L1005,488.2 M1005,485.9L945.9,608l118.2,0L1005,485.9L1005,485.9z"/>
</g>
<g>
	<polygon class="st6" points="-56.3,485.5 2,365 60.3,485.5 	"/>
	<path class="st1" d="M2,366.2L59.5,485l-115,0L2,366.2 M2,363.9L-57.1,486l118.2,0L2,363.9L2,363.9z"/>
</g>
<g>
	<polygon class="st6" points="-56.3,241.5 2,121 60.3,241.5 	"/>
	<path class="st1" d="M2,122.2L59.5,241l-115,0L2,122.2 M2,119.9L-57.1,242l118.2,0L2,119.9L2,119.9z"/>
</g>
<g>
	<polygon class="st6" points="-56.3,729.5 2,609 60.3,729.5 	"/>
	<path class="st1" d="M2,610.2L59.5,729l-115,0L2,610.2 M2,607.9L-57.1,730l118.2,0L2,607.9L2,607.9z"/>
</g>
<g>
	<polygon class="st6" points="1005.7,485.5 1064,365 1122.3,485.5 	"/>
	<path class="st1" d="M1064,366.2l57.5,118.8l-115,0L1064,366.2 M1064,363.9L1004.9,486l118.2,0L1064,363.9L1064,363.9z"/>
</g>
<g>
	<polygon class="st6" points="1005.7,241.5 1064,121 1122.3,241.5 	"/>
	<path class="st1" d="M1064,122.2l57.5,118.8l-115,0L1064,122.2 M1064,119.9L1004.9,242l118.2,0L1064,119.9L1064,119.9z"/>
</g>
<g>
	<polygon class="st6" points="1005.7,729.5 1064,609 1122.3,729.5 	"/>
	<path class="st1" d="M1064,610.2l57.5,118.8l-115,0L1064,610.2 M1064,607.9L1004.9,730l118.2,0L1064,607.9L1064,607.9z"/>
</g>
<g>
	<polygon class="st0" points="1064.7,607.5 1123,487 1181.3,607.5 	"/>
	<path class="st1" d="M1123,488.2l57.5,118.8l-115,0L1123,488.2 M1123,485.9L1063.9,608l118.2,0L1123,485.9L1123,485.9z"/>
</g>
<g>
	<polygon class="st0" points="1064.7,363.5 1123,243 1181.3,363.5 	"/>
	<path class="st1" d="M1123,244.2l57.5,118.8l-115,0L1123,244.2 M1123,241.9L1063.9,364l118.2,0L1123,241.9L1123,241.9z"/>
</g>
<g>
	<polygon class="st0" points="1064.7,119.5 1123,-1 1181.3,119.5 	"/>
	<path class="st1" d="M1123,0.2l57.5,118.8l-115,0L1123,0.2 M1123-2.1L1063.9,120l118.2,0L1123-2.1L1123-2.1z"/>
</g>
<g>
	<polygon class="st0" points="1.7,609.5 118.3,609.5 60,730 	"/>
	<path class="st1" d="M2.5,610l115,0L60,728.8L2.5,610 M0.9,609L60,731.1L119.1,609L0.9,609L0.9,609z"/>
</g>
<g>
	<polygon class="st2" points="119.7,609.5 236.3,609.5 178,730 	"/>
	<path class="st1" d="M120.5,610l115,0L178,728.8L120.5,610 M118.9,609L178,731.1L237.1,609L118.9,609L118.9,609z"/>
</g>
<g>
	<polygon class="st3" points="237.7,609.5 354.3,609.5 296,730 	"/>
	<path class="st1" d="M238.5,610l115,0L296,728.8L238.5,610 M236.9,609L296,731.1L355.1,609L236.9,609L236.9,609z"/>
</g>
<g>
	<polygon class="st0" points="355.7,609.5 472.3,609.5 414,730 	"/>
	<path class="st1" d="M356.5,610l115,0L414,728.8L356.5,610 M354.9,609L414,731.1L473.1,609L354.9,609L354.9,609z"/>
</g>
<g>
	<polygon class="st2" points="473.7,609.5 590.3,609.5 532,730 	"/>
	<path class="st1" d="M474.5,610l115,0L532,728.8L474.5,610 M472.9,609L532,731.1L591.1,609L472.9,609L472.9,609z"/>
</g>
<g>
	<polygon class="st3" points="591.7,609.5 708.3,609.5 650,730 	"/>
	<path class="st1" d="M592.5,610l115,0L650,728.8L592.5,610 M590.9,609L650,731.1L709.1,609L590.9,609L590.9,609z"/>
</g>
<g>
	<polygon class="st0" points="709.7,609.5 826.3,609.5 768,730 	"/>
	<path class="st1" d="M710.5,610l115,0L768,728.8L710.5,610 M708.9,609L768,731.1L827.1,609L708.9,609L708.9,609z"/>
</g>
<g>
	<polygon class="st2" points="827.7,609.5 944.3,609.5 886,730 	"/>
	<path class="st1" d="M828.5,610l115,0L886,728.8L828.5,610 M826.9,609L886,731.1L945.1,609L826.9,609L826.9,609z"/>
</g>
<g>
	<polygon class="st4" points="60.7,487.5 177.3,487.5 119,608 	"/>
	<path class="st1" d="M61.5,488l115,0L119,606.8L61.5,488 M59.9,487L119,609.1L178.1,487L59.9,487L59.9,487z"/>
</g>
<g>
	<polygon class="st5" points="178.7,487.5 295.3,487.5 237,608 	"/>
	<path class="st1" d="M179.5,488l115,0L237,606.8L179.5,488 M177.9,487L237,609.1L296.1,487L177.9,487L177.9,487z"/>
</g>
<g>
	<polygon class="st6" points="296.7,487.5 413.3,487.5 355,608 	"/>
	<path class="st1" d="M297.5,488l115,0L355,606.8L297.5,488 M295.9,487L355,609.1L414.1,487L295.9,487L295.9,487z"/>
</g>
<g>
	<polygon class="st4" points="414.7,487.5 531.3,487.5 473,608 	"/>
	<path class="st1" d="M415.5,488l115,0L473,606.8L415.5,488 M413.9,487L473,609.1L532.1,487L413.9,487L413.9,487z"/>
</g>
<g>
	<polygon class="st5" points="532.7,487.5 649.3,487.5 591,608 	"/>
	<path class="st1" d="M533.5,488l115,0L591,606.8L533.5,488 M531.9,487L591,609.1L650.1,487L531.9,487L531.9,487z"/>
</g>
<g>
	<polygon class="st6" points="650.7,487.5 767.3,487.5 709,608 	"/>
	<path class="st1" d="M651.5,488l115,0L709,606.8L651.5,488 M649.9,487L709,609.1L768.1,487L649.9,487L649.9,487z"/>
</g>
<g>
	<polygon class="st4" points="768.7,487.5 885.3,487.5 827,608 	"/>
	<path class="st1" d="M769.5,488l115,0L827,606.8L769.5,488 M767.9,487L827,609.1L886.1,487L767.9,487L767.9,487z"/>
</g>
<g>
	<polygon class="st5" points="886.7,487.5 1003.3,487.5 945,608 	"/>
	<path class="st1" d="M887.5,488l115,0L945,606.8L887.5,488 M885.9,487L945,609.1l59.1-122.1L885.9,487L885.9,487z"/>
</g>
<g>
	<polygon class="st0" points="1.7,365.5 118.3,365.5 60,486 	"/>
	<path class="st1" d="M2.5,366l115,0L60,484.8L2.5,366 M0.9,365L60,487.1L119.1,365L0.9,365L0.9,365z"/>
</g>
<g>
	<polygon class="st2" points="119.7,365.5 236.3,365.5 178,486 	"/>
	<path class="st1" d="M120.5,366l115,0L178,484.8L120.5,366 M118.9,365L178,487.1L237.1,365L118.9,365L118.9,365z"/>
</g>
<g>
	<polygon class="st3" points="237.7,365.5 354.3,365.5 296,486 	"/>
	<path class="st1" d="M238.5,366l115,0L296,484.8L238.5,366 M236.9,365L296,487.1L355.1,365L236.9,365L236.9,365z"/>
</g>
<g>
	<polygon class="st0" points="355.7,365.5 472.3,365.5 414,486 	"/>
	<path class="st1" d="M356.5,366l115,0L414,484.8L356.5,366 M354.9,365L414,487.1L473.1,365L354.9,365L354.9,365z"/>
</g>
<g>
	<polygon class="st2" points="473.7,365.5 590.3,365.5 532,486 	"/>
	<path class="st1" d="M474.5,366l115,0L532,484.8L474.5,366 M472.9,365L532,487.1L591.1,365L472.9,365L472.9,365z"/>
</g>
<g>
	<polygon class="st3" points="591.7,365.5 708.3,365.5 650,486 	"/>
	<path class="st1" d="M592.5,366l115,0L650,484.8L592.5,366 M590.9,365L650,487.1L709.1,365L590.9,365L590.9,365z"/>
</g>
<g>
	<polygon class="st0" points="709.7,365.5 826.3,365.5 768,486 	"/>
	<path class="st1" d="M710.5,366l115,0L768,484.8L710.5,366 M708.9,365L768,487.1L827.1,365L708.9,365L708.9,365z"/>
</g>
<g>
	<polygon class="st2" points="827.7,365.5 944.3,365.5 886,486 	"/>
	<path class="st1" d="M828.5,366l115,0L886,484.8L828.5,366 M826.9,365L886,487.1L945.1,365L826.9,365L826.9,365z"/>
</g>
<g>
	<polygon class="st4" points="60.7,243.5 177.3,243.5 119,364 	"/>
	<path class="st1" d="M61.5,244l115,0L119,362.8L61.5,244 M59.9,243L119,365.1L178.1,243L59.9,243L59.9,243z"/>
</g>
<g>
	<polygon class="st5" points="178.7,243.5 295.3,243.5 237,364 	"/>
	<path class="st1" d="M179.5,244l115,0L237,362.8L179.5,244 M177.9,243L237,365.1L296.1,243L177.9,243L177.9,243z"/>
</g>
<g>
	<polygon class="st6" points="296.7,243.5 413.3,243.5 355,364 	"/>
	<path class="st1" d="M297.5,244l115,0L355,362.8L297.5,244 M295.9,243L355,365.1L414.1,243L295.9,243L295.9,243z"/>
</g>
<g>
	<polygon class="st4" points="414.7,243.5 531.3,243.5 473,364 	"/>
	<path class="st1" d="M415.5,244l115,0L473,362.8L415.5,244 M413.9,243L473,365.1L532.1,243L413.9,243L413.9,243z"/>
</g>
<g>
	<polygon class="st5" points="532.7,243.5 649.3,243.5 591,364 	"/>
	<path class="st1" d="M533.5,244l115,0L591,362.8L533.5,244 M531.9,243L591,365.1L650.1,243L531.9,243L531.9,243z"/>
</g>
<g>
	<polygon class="st6" points="650.7,243.5 767.3,243.5 709,364 	"/>
	<path class="st1" d="M651.5,244l115,0L709,362.8L651.5,244 M649.9,243L709,365.1L768.1,243L649.9,243L649.9,243z"/>
</g>
<g>
	<polygon class="st4" points="768.7,243.5 885.3,243.5 827,364 	"/>
	<path class="st1" d="M769.5,244l115,0L827,362.8L769.5,244 M767.9,243L827,365.1L886.1,243L767.9,243L767.9,243z"/>
</g>
<g>
	<polygon class="st5" points="886.7,243.5 1003.3,243.5 945,364 	"/>
	<path class="st1" d="M887.5,244l115,0L945,362.8L887.5,244 M885.9,243L945,365.1l59.1-122.1L885.9,243L885.9,243z"/>
</g>
<g>
	<polygon class="st0" points="1.7,121.5 118.3,121.5 60,242 	"/>
	<path class="st1" d="M2.5,122l115,0L60,240.8L2.5,122 M0.9,121L60,243.1L119.1,121L0.9,121L0.9,121z"/>
</g>
<g>
	<polygon class="st2" points="119.7,121.5 236.3,121.5 178,242 	"/>
	<path class="st1" d="M120.5,122l115,0L178,240.8L120.5,122 M118.9,121L178,243.1L237.1,121L118.9,121L118.9,121z"/>
</g>
<g>
	<polygon class="st3" points="237.7,121.5 354.3,121.5 296,242 	"/>
	<path class="st1" d="M238.5,122l115,0L296,240.8L238.5,122 M236.9,121L296,243.1L355.1,121L236.9,121L236.9,121z"/>
</g>
<g>
	<polygon class="st0" points="355.7,121.5 472.3,121.5 414,242 	"/>
	<path class="st1" d="M356.5,122l115,0L414,240.8L356.5,122 M354.9,121L414,243.1L473.1,121L354.9,121L354.9,121z"/>
</g>
<g>
	<polygon class="st2" points="473.7,121.5 590.3,121.5 532,242 	"/>
	<path class="st1" d="M474.5,122l115,0L532,240.8L474.5,122 M472.9,121L532,243.1L591.1,121L472.9,121L472.9,121z"/>
</g>
<g>
	<polygon class="st3" points="591.7,121.5 708.3,121.5 650,242 	"/>
	<path class="st1" d="M592.5,122l115,0L650,240.8L592.5,122 M590.9,121L650,243.1L709.1,121L590.9,121L590.9,121z"/>
</g>
<g>
	<polygon class="st0" points="709.7,121.5 826.3,121.5 768,242 	"/>
	<path class="st1" d="M710.5,122l115,0L768,240.8L710.5,122 M708.9,121L768,243.1L827.1,121L708.9,121L708.9,121z"/>
</g>
<g>
	<polygon class="st2" points="827.7,121.5 944.3,121.5 886,242 	"/>
	<path class="st1" d="M828.5,122l115,0L886,240.8L828.5,122 M826.9,121L886,243.1L945.1,121L826.9,121L826.9,121z"/>
</g>
<g>
	<polygon class="st4" points="60.7,-0.5 177.3,-0.5 119,120 	"/>
	<path class="st1" d="M61.5,0l115,0L119,118.8L61.5,0 M59.9-1L119,121.1L178.1-1L59.9-1L59.9-1z"/>
</g>
<g>
	<polygon class="st5" points="178.7,-0.5 295.3,-0.5 237,120 	"/>
	<path class="st1" d="M179.5,0l115,0L237,118.8L179.5,0 M177.9-1L237,121.1L296.1-1L177.9-1L177.9-1z"/>
</g>
<g>
	<polygon class="st6" points="296.7,-0.5 413.3,-0.5 355,120 	"/>
	<path class="st1" d="M297.5,0l115,0L355,118.8L297.5,0 M295.9-1L355,121.1L414.1-1L295.9-1L295.9-1z"/>
</g>
<g>
	<polygon class="st4" points="414.7,-0.5 531.3,-0.5 473,120 	"/>
	<path class="st1" d="M415.5,0l115,0L473,118.8L415.5,0 M413.9-1L473,121.1L532.1-1L413.9-1L413.9-1z"/>
</g>
<g>
	<polygon class="st5" points="532.7,-0.5 649.3,-0.5 591,120 	"/>
	<path class="st1" d="M533.5,0l115,0L591,118.8L533.5,0 M531.9-1L591,121.1L650.1-1L531.9-1L531.9-1z"/>
</g>
<g>
	<polygon class="st6" points="650.7,-0.5 767.3,-0.5 709,120 	"/>
	<path class="st1" d="M651.5,0l115,0L709,118.8L651.5,0 M649.9-1L709,121.1L768.1-1L649.9-1L649.9-1z"/>
</g>
<g>
	<polygon class="st4" points="768.7,-0.5 885.3,-0.5 827,120 	"/>
	<path class="st1" d="M769.5,0l115,0L827,118.8L769.5,0 M767.9-1L827,121.1L886.1-1L767.9-1L767.9-1z"/>
</g>
<g>
	<polygon class="st5" points="886.7,-0.5 1003.3,-0.5 945,120 	"/>
	<path class="st1" d="M887.5,0l115,0L945,118.8L887.5,0 M885.9-1L945,121.1L1004.1-1L885.9-1L885.9-1z"/>
</g>
<g>
	<polygon class="st3" points="945.7,609.5 1062.3,609.5 1004,730 	"/>
	<path class="st1" d="M946.5,610l115,0L1004,728.8L946.5,610 M944.9,609l59.1,122.1l59.1-122.1L944.9,609L944.9,609z"/>
</g>
<g>
	<polygon class="st3" points="945.7,365.5 1062.3,365.5 1004,486 	"/>
	<path class="st1" d="M946.5,366l115,0L1004,484.8L946.5,366 M944.9,365l59.1,122.1l59.1-122.1L944.9,365L944.9,365z"/>
</g>
<g>
	<polygon class="st3" points="945.7,121.5 1062.3,121.5 1004,242 	"/>
	<path class="st1" d="M946.5,122l115,0L1004,240.8L946.5,122 M944.9,121l59.1,122.1l59.1-122.1L944.9,121L944.9,121z"/>
</g>
<g>
	<polygon class="st6" points="-57.3,243.5 59.3,243.5 1,364 	"/>
	<path class="st1" d="M-56.5,244l115,0L1,362.8L-56.5,244 M-58.1,243L1,365.1L60.1,243L-58.1,243L-58.1,243z"/>
</g>
<g>
	<polygon class="st6" points="-57.3,487.5 59.3,487.5 1,608 	"/>
	<path class="st1" d="M-56.5,488l115,0L1,606.8L-56.5,488 M-58.1,487L1,609.1L60.1,487L-58.1,487L-58.1,487z"/>
</g>
<g>
	<polygon class="st6" points="-57.3,-0.5 59.3,-0.5 1,120 	"/>
	<path class="st1" d="M-56.5,0l115,0L1,118.8L-56.5,0 M-58.1-1L1,121.1L60.1-1L-58.1-1L-58.1-1z"/>
</g>
<g>
	<polygon class="st6" points="1004.7,243.5 1121.3,243.5 1063,364 	"/>
	<path class="st1" d="M1005.5,244l115,0L1063,362.8L1005.5,244 M1003.9,243l59.1,122.1l59.1-122.1L1003.9,243L1003.9,243z"/>
</g>
<g>
	<polygon class="st6" points="1004.7,487.5 1121.3,487.5 1063,608 	"/>
	<path class="st1" d="M1005.5,488l115,0L1063,606.8L1005.5,488 M1003.9,487l59.1,122.1l59.1-122.1L1003.9,487L1003.9,487z"/>
</g>
<g>
	<polygon class="st6" points="1004.7,-0.5 1121.3,-0.5 1063,120 	"/>
	<path class="st1" d="M1005.5,0l115,0L1063,118.8L1005.5,0 M1003.9-1l59.1,122.1L1122.1-1L1003.9-1L1003.9-1z"/>
</g>
<g>
	<polygon class="st0" points="1063.7,121.5 1180.3,121.5 1122,242 	"/>
	<path class="st1" d="M1064.5,122l115,0L1122,240.8L1064.5,122 M1062.9,121l59.1,122.1l59.1-122.1L1062.9,121L1062.9,121z"/>
</g>
<g>
	<polygon class="st0" points="1063.7,365.5 1180.3,365.5 1122,486 	"/>
	<path class="st1" d="M1064.5,366l115,0L1122,484.8L1064.5,366 M1062.9,365l59.1,122.1l59.1-122.1L1062.9,365L1062.9,365z"/>
</g>
<g>
	<polygon class="st0" points="1063.7,609.5 1180.3,609.5 1122,730 	"/>
	<path class="st1" d="M1064.5,610l115,0L1122,728.8L1064.5,610 M1062.9,609l59.1,122.1l59.1-122.1L1062.9,609L1062.9,609z"/>
</g>
</svg>
