<?xml version="1.0" encoding="utf-8"?>
<!-- Generator: Adobe Illustrator 22.1.0, SVG Export Plug-In . SVG Version: 6.00 Build 0)  -->
<svg version="1.1" id="Layer_1" xmlns="http://www.w3.org/2000/svg" xmlns:xlink="http://www.w3.org/1999/xlink" x="0px" y="0px"
	 viewBox="0 0 860 1400" style="enable-background:new 0 0 860 1400;" xml:space="preserve">
<style type="text/css">
	.st0{fill:none;stroke:#000000;stroke-miterlimit:10;}
	.st1{fill:#89031A;}
	.st2{fill:#D18C42;}
	.st3{fill:#BBBF21;}
	.st4{fill:#736357;}
	.st5{fill:#DD051F;}
</style>
<line class="st0" x1="-484.1" y1="262" x2="-484.1" y2="264.9"/>
<path class="st1" d="M780,1080.7c0,31.8-4.2,62.7-12.2,92c-24.1-88.6-82-163.1-159.1-209c21-44.7,39.5-93.6,52.6-145.7
	C734.1,882.2,780,976.1,780,1080.7z"/>
<path class="st2" d="M656.4,756.7h17.5c-3.2,20.9-7.5,41.3-12.5,61.4L656.4,756.7z"/>
<path class="st2" d="M661.4,818.1L661.4,818.1c-13.1,52-31.7,101-52.6,145.7H494.5c-6-96-55.1-170.9-55.1-170.9s-49.1,75-55.1,170.9
	h-133c-21-44.7-39.5-93.6-52.6-145.7l0,0l4.8-61.4h452.9L661.4,818.1z"/>
<path class="st3" d="M494.4,963.8h114.3c-21.1,44.9-44.6,85.6-67.5,120.7c-4.3-1.6-8.7-3-13.2-4.4v-53.6h-36.1
	c2-14,3.1-28.7,3.1-43.7C495.1,976.4,494.8,970,494.4,963.8z"/>
<path class="st4" d="M528.1,1080.1v46.4h-64.8c6.8-15.8,14-35,19.8-56.6C498.9,1072.3,514,1075.7,528.1,1080.1z"/>
<path class="st3" d="M528.1,1026.5v53.6c-14.1-4.3-29.2-7.8-45-10.1c3.6-13.6,6.8-28.2,8.9-43.4L528.1,1026.5L528.1,1026.5z"/>
<path class="st1" d="M494.4,963.8c0.4,6.3,0.6,12.6,0.6,19c0,15-1.2,29.7-3.1,43.7h-52.6v-62.8h55.1V963.8z"/>
<path class="st1" d="M494.4,963.8h-55.1V792.9C439.3,792.8,488.4,867.8,494.4,963.8z"/>
<path class="st1" d="M439.3,1026.5h52.6c-2.1,15.3-5.2,29.8-8.9,43.4c-14.1-2.1-28.7-3.4-43.7-3.8V1026.5z"/>
<path class="st1" d="M483.1,1069.9c-5.8,21.6-13,40.8-19.8,56.6h-24v-60.4C454.4,1066.5,469,1067.8,483.1,1069.9z"/>
<path class="st1" d="M439.3,1126.5h23.9c-12.5,28.8-23.9,46.2-23.9,46.2V1126.5z"/>
<path class="st5" d="M439.3,1126.5v46.2c0,0-11.4-17.4-23.9-46.2H439.3z"/>
<path class="st5" d="M439.3,1066.1v60.4h-23.9c-7.1-16.3-14.5-36.3-20.4-58.8c11.4-1.1,23.1-1.7,35-1.7
	C433.2,1066,436.3,1066,439.3,1066.1z"/>
<path class="st5" d="M439.3,1026.5v39.6c-3.1-0.1-6.2-0.1-9.3-0.1c-11.9,0-23.6,0.6-35,1.7c-3.4-12.9-6.3-26.8-8.3-41.2H439.3z"/>
<path class="st5" d="M439.3,963.8v62.8h-52.6c-2-14-3.1-28.7-3.1-43.7c0-6.4,0.2-12.8,0.6-19h55.1V963.8z"/>
<path class="st5" d="M439.3,792.8v170.9h-55.1C390.2,867.8,439.3,792.8,439.3,792.8z"/>
<path class="st4" d="M415.4,1126.5h-69.3v-50.4c15.4-3.9,31.8-6.8,48.9-8.4C400.9,1090.2,408.4,1110.2,415.4,1126.5z"/>
<path class="st3" d="M386.7,1026.5c2,14.4,4.9,28.2,8.3,41.2c-17.1,1.7-33.5,4.5-48.9,8.4v-49.6H386.7z"/>
<path class="st3" d="M386.7,1026.5H346v49.6c-9.5,2.4-18.6,5.2-27.2,8.3c-22.9-35.2-46.4-75.8-67.5-120.7h132.9
	c-0.4,6.3-0.6,12.6-0.6,19C383.6,997.8,384.8,1012.5,386.7,1026.5z"/>
<path class="st5" d="M198.7,818.1c13.1,52,31.7,101,52.6,145.7c-77.1,45.8-135,120.4-159.1,209c-8-29.3-12.2-60.2-12.2-92
	C80,976.1,126,882.2,198.7,818.1L198.7,818.1z"/>
<path class="st2" d="M203.5,756.7l-4.8,61.4c-5-20-9.3-40.5-12.5-61.4L203.5,756.7L203.5,756.7z"/>
<polyline class="st0" points="415.4,1126.5 346.1,1126.5 346.1,1076.1 "/>
<polyline class="st0" points="528.1,1080.1 528.1,1126.5 463.3,1126.5 "/>
<path class="st0" d="M661.4,818.1c-13.1,52-31.7,101-52.6,145.7c77.1,45.8,135,120.4,159.1,209c8-29.3,12.2-60.2,12.2-92
	C780,976.1,734.1,882.2,661.4,818.1z"/>
<path class="st0" d="M198.7,818.1c13.1,52,31.7,101,52.6,145.7c-77.1,45.8-135,120.4-159.1,209c-8-29.3-12.2-60.2-12.2-92
	C80,976.1,126,882.2,198.7,818.1"/>
<path class="st0" d="M674.4,755.1c-3.2,21.2-7.5,42.2-13,63"/>
<path class="st0" d="M198.7,818.1c-4.7-20.6-8.9-41.5-12.1-62.4"/>
<path class="st0" d="M483.1,1069.9c15.8,2.4,30.9,5.8,45,10.1c4.5,1.4,8.9,2.8,13.2,4.4c22.9-35.2,46.4-75.8,67.5-120.7"/>
<path class="st0" d="M251.3,963.8c21.1,44.9,44.6,85.6,67.5,120.7c8.7-3.2,17.8-5.9,27.2-8.3c15.4-3.9,31.8-6.8,48.9-8.4"/>
<path class="st0" d="M494.4,963.8c0.4,6.3,0.6,12.6,0.6,19c0,15-1.2,29.7-3.1,43.7c-2.1,15.3-5.2,29.8-8.9,43.4
	c-5.8,21.6-13,40.8-19.8,56.6c-12.5,28.8-23.9,46.2-23.9,46.2s-11.4-17.4-23.9-46.2c-7.1-16.3-14.5-36.3-20.4-58.8
	c-3.4-12.9-6.3-26.8-8.3-41.2c-2-14-3.1-28.7-3.1-43.7c0-6.4,0.2-12.8,0.6-19c6-96,55.1-170.9,55.1-170.9S488.4,867.8,494.4,963.8z"
	/>
<polyline class="st0" points="439.3,792.8 439.3,963.8 439.3,1026.5 439.3,1066.1 439.3,1126.5 439.3,1172.7 "/>
<line class="st0" x1="204.6" y1="484" x2="205" y2="484"/>
<line class="st0" x1="823.9" y1="274" x2="823.9" y2="276.9"/>
<polyline class="st0" points="186.2,756.7 203.5,756.7 656.4,756.7 673.9,756.7 673.9,756.7 "/>
</svg>
