<?xml version="1.0" encoding="utf-8"?>
<!-- Generator: Adobe Illustrator 22.1.0, SVG Export Plug-In . SVG Version: 6.00 Build 0)  -->
<svg version="1.1" id="Layer_1" xmlns="http://www.w3.org/2000/svg" xmlns:xlink="http://www.w3.org/1999/xlink" x="0px" y="0px"
	 viewBox="0 0 860 1400" style="enable-background:new 0 0 860 1400;" xml:space="preserve">
<style type="text/css">
	.st0{fill:none;stroke:#000000;stroke-miterlimit:10;}
	.st1{fill:#D18C42;}
	.st2{fill:#396B4D;}
	.st3{fill:#3981C9;}
	.st4{fill:#7C7C63;}
	.st5{fill:#89031A;}
	.st6{fill:#BBBF21;}
	.st7{fill:#736357;}
	.st8{fill:#DD051F;}
	.st9{fill:#FFFFFF;}
</style>
<line class="st0" x1="-485.8" y1="262" x2="-485.8" y2="264.9"/>
<g id="XMLID_1_">
	<g>
		<path class="st1" d="M659.7,818.1L659.7,818.1c-13.1,52-31.7,101-52.6,145.7H492.8c-6-96-55.1-170.9-55.1-170.9
			s-49.1,75-55.1,170.9h-133c-21-44.7-39.5-93.6-52.6-145.7l0,0l4.8-61.4h452.9L659.7,818.1z"/>
		<polygon class="st2" points="643.1,614 654.7,756.7 201.8,756.7 212.9,614 		"/>
		<polygon class="st3" points="632.6,484 643.1,614 212.9,614 223,484 		"/>
		<path class="st4" d="M626.3,405.9l6.3,78.1H223l5.8-74.2l9.5-2.7l22.5-6.3c37.8-10.5,80.9-17.3,126.8-20.1
			c15-0.9,30.4-1.3,45.9-1.3c15.4,0,30.6,0.5,45.6,1.3c41.8,2.5,81.6,8.4,117,17.4l22,5.6L626.3,405.9z"/>
		<path class="st5" d="M778.3,1080.7c0,31.8-4.2,62.7-12.2,92c-24.1-88.6-82-163.1-159.1-209c21-44.7,39.5-93.6,52.6-145.7
			C732.4,882.2,778.3,976.1,778.3,1080.7z"/>
		<path class="st2" d="M677.6,614c1.3,16.1,2,32.4,2,48.8c0,32-2.6,63.4-7.4,93.9h-17.5L643.1,614H677.6z"/>
		<path class="st3" d="M677.6,614h-34.4l-10.6-130h20.3l0.4-0.1C665.2,525.3,673.9,568.9,677.6,614z"/>
		<path class="st1" d="M654.7,756.7h17.5c-3.2,20.9-7.5,41.3-12.5,61.4L654.7,756.7z"/>
		<path class="st4" d="M653.3,484l-0.4,0.1h-20.3l-6.3-78.1C636.4,430.9,645.6,457,653.3,484z"/>
		<path class="st6" d="M492.7,963.8H607c-21.1,44.9-44.6,85.6-67.5,120.7c-4.3-1.6-8.7-3-13.2-4.4v-53.6h-36.1
			c2-14,3.1-28.7,3.1-43.7C493.4,976.4,493.1,970,492.7,963.8z"/>
		<path class="st7" d="M526.4,1080.1v46.4h-64.8c6.8-15.8,14-35,19.8-56.6C497.2,1072.3,512.3,1075.7,526.4,1080.1z"/>
		<path class="st6" d="M526.4,1026.5v53.6c-14.1-4.3-29.2-7.8-45-10.1c3.6-13.6,6.8-28.2,8.9-43.4L526.4,1026.5L526.4,1026.5z"/>
		<path class="st5" d="M492.7,963.8c0.4,6.3,0.6,12.6,0.6,19c0,15-1.2,29.7-3.1,43.7h-52.6v-62.8h55.1V963.8z"/>
		<path class="st5" d="M492.7,963.8h-55.1V792.9C437.6,792.8,486.7,867.8,492.7,963.8z"/>
		<path class="st5" d="M437.6,1026.5h52.6c-2.1,15.3-5.2,29.8-8.9,43.4c-14.1-2.1-28.7-3.4-43.7-3.8V1026.5z"/>
		<path class="st5" d="M481.4,1069.9c-5.8,21.6-13,40.8-19.8,56.6h-24v-60.4C452.7,1066.5,467.3,1067.8,481.4,1069.9z"/>
		<path class="st5" d="M437.6,1126.5h23.9c-12.5,28.8-23.9,46.2-23.9,46.2V1126.5z"/>
		<path class="st8" d="M437.6,1126.5v46.2c0,0-11.4-17.4-23.9-46.2H437.6z"/>
		<path class="st8" d="M437.6,1066.1v60.4h-23.9c-7.1-16.3-14.5-36.3-20.4-58.8c11.4-1.1,23.1-1.7,35-1.7
			C431.5,1066,434.6,1066,437.6,1066.1z"/>
		<path class="st8" d="M437.6,1026.5v39.6c-3.1-0.1-6.2-0.1-9.3-0.1c-11.9,0-23.6,0.6-35,1.7c-3.4-12.9-6.3-26.8-8.3-41.2H437.6z"/>
		<path class="st8" d="M437.6,963.8v62.8H385c-2-14-3.1-28.7-3.1-43.7c0-6.4,0.2-12.8,0.6-19h55.1V963.8z"/>
		<path class="st8" d="M437.6,792.8v170.9h-55.1C388.5,867.8,437.6,792.8,437.6,792.8z"/>
		<path class="st9" d="M429,98.7c0,0,103.5,104,177.6,260.9c-0.2-0.1-0.5-0.1-0.7-0.2C534.2,207.7,435.1,105.5,428.7,99
			C428.9,98.8,429,98.7,429,98.7z"/>
		<path class="st5" d="M428.7,99c6.4,6.5,105.5,108.7,177.2,260.4c-49.4-12.6-108.7-20-172.4-20L428.7,99z"/>
		<path class="st8" d="M428.7,99l4.8,240.4c-68.5,0-131.9,8.5-183.4,22.9C321.9,209,422.3,105.5,428.7,99z"/>
		<path class="st7" d="M413.7,1126.5h-69.3v-50.4c15.4-3.9,31.8-6.8,48.9-8.4C399.2,1090.2,406.7,1110.2,413.7,1126.5z"/>
		<path class="st6" d="M385,1026.5c2,14.4,4.9,28.2,8.3,41.2c-17.1,1.7-33.5,4.5-48.9,8.4v-49.6H385z"/>
		<path class="st6" d="M385,1026.5h-40.7v49.6c-9.5,2.4-18.6,5.2-27.2,8.3c-22.9-35.2-46.4-75.8-67.5-120.7h132.9
			c-0.4,6.3-0.6,12.6-0.6,19C381.9,997.8,383.1,1012.5,385,1026.5z"/>
		<path class="st6" d="M428.7,99c-6.4,6.5-106.8,110-178.6,263.3c51.5-14.4,114.9-22.9,183.4-22.9c63.7,0,123,7.3,172.4,20
			c3.3,7,6.6,14.2,9.8,21.4c3.6,8.2,7.2,16.6,10.6,25.1l-8.3-2.1l-22-5.6c-35.3-9-75.1-14.9-117-17.4c-15-0.9-30.2-1.3-45.6-1.3
			c-15.5,0-30.8,0.5-45.9,1.3c-45.8,2.7-89,9.5-126.8,20.1l-22.5,6.3l-9.5,2.7c3.9-9.8,8-19.5,12.2-29
			C315.3,212.3,428.2,98.8,428.2,98.8S428.4,98.8,428.7,99z"/>
		<path class="st4" d="M228.8,409.8L223,484h-19.7C210.7,458.4,219.3,433.6,228.8,409.8z"/>
		<path class="st3" d="M223,484l-10.1,130h-33.8c3.7-45,12.3-88.5,24.2-129.9L223,484L223,484z"/>
		<path class="st2" d="M212.9,614l-11.1,142.8h-17.3c-4.8-30.5-7.4-61.9-7.4-93.9c0-16.5,0.7-32.7,2-48.8L212.9,614L212.9,614z"/>
		<path class="st1" d="M201.8,756.7l-4.8,61.4c-5-20-9.3-40.5-12.5-61.4L201.8,756.7L201.8,756.7z"/>
		<path class="st8" d="M197,818.1c13.1,52,31.7,101,52.6,145.7c-77.1,45.8-135,120.4-159.1,209c-8-29.3-12.2-60.2-12.2-92
			C78.3,976.1,124.3,882.2,197,818.1L197,818.1z"/>
	</g>
	<g>
		<polyline class="st0" points="413.7,1126.5 344.4,1126.5 344.4,1076.1 		"/>
		<polyline class="st0" points="526.4,1080.1 526.4,1126.5 461.6,1126.5 		"/>
		<path class="st0" d="M659.7,818.1c-13.1,52-31.7,101-52.6,145.7c77.1,45.8,135,120.4,159.1,209c8-29.3,12.2-60.2,12.2-92
			C778.3,976.1,732.4,882.2,659.7,818.1z"/>
		<path class="st0" d="M197,818.1c13.1,52,31.7,101,52.6,145.7c-77.1,45.8-135,120.4-159.1,209c-8-29.3-12.2-60.2-12.2-92
			C78.3,976.1,124.3,882.2,197,818.1"/>
		<path class="st0" d="M626.3,405.9c10.1,25,19.3,51.1,27,78c11.9,41.4,20.6,85,24.3,130c1.3,16.1,2,32.4,2,48.8
			c0,32-2.6,63.4-7.4,93.9c-3.2,20.9-7.5,41.3-12.5,61.4"/>
		<path class="st0" d="M197,818.1c-5-20-9.3-40.5-12.5-61.4c-4.8-30.5-7.4-61.9-7.4-93.9c0-16.5,0.7-32.7,2-48.8
			c3.7-45,12.3-88.5,24.2-129.9c7.4-25.6,16-50.4,25.5-74.2"/>
		<path class="st0" d="M481.4,1069.9c15.8,2.4,30.9,5.8,45,10.1c4.5,1.4,8.9,2.8,13.2,4.4c22.9-35.2,46.4-75.8,67.5-120.7"/>
		<path class="st0" d="M249.6,963.8c21.1,44.9,44.6,85.6,67.5,120.7c8.7-3.2,17.8-5.9,27.2-8.3c15.4-3.9,31.8-6.8,48.9-8.4"/>
		<path class="st0" d="M492.7,963.8c0.4,6.3,0.6,12.6,0.6,19c0,15-1.2,29.7-3.1,43.7c-2.1,15.3-5.2,29.8-8.9,43.4
			c-5.8,21.6-13,40.8-19.8,56.6c-12.5,28.8-23.9,46.2-23.9,46.2s-11.4-17.4-23.9-46.2c-7.1-16.3-14.5-36.3-20.4-58.8
			c-3.4-12.9-6.3-26.8-8.3-41.2c-2-14-3.1-28.7-3.1-43.7c0-6.4,0.2-12.8,0.6-19c6-96,55.1-170.9,55.1-170.9S486.7,867.8,492.7,963.8
			z"/>
		<path class="st0" d="M605.9,359.4c3.3,7,6.6,14.2,9.8,21.4c3.6,8.2,7.2,16.6,10.6,25.1l-8.3-2.1l-22-5.6
			c-35.3-9-75.1-14.9-117-17.4c-15-0.9-30.2-1.3-45.6-1.3c-15.5,0-30.8,0.5-45.9,1.3c-45.8,2.7-89,9.5-126.8,20.1l-22.5,6.3
			l-9.5,2.7c3.9-9.8,8-19.5,12.2-29C315.3,212.3,428.2,98.8,428.2,98.8s0.1,0.1,0.3,0.3"/>
		<path class="st0" d="M605.9,359.4c-49.4-12.6-108.7-20-172.4-20c-68.5,0-131.9,8.5-183.4,22.9C321.9,209,422.3,105.5,428.7,99"/>
		<path class="st0" d="M428.7,99c0.2-0.2,0.3-0.3,0.3-0.3s103.5,104,177.6,260.9c-0.2-0.1-0.5-0.1-0.7-0.2
			C534.2,207.8,435.1,105.5,428.7,99z"/>
		<line class="st0" x1="428.7" y1="99" x2="433.5" y2="339.5"/>
		<polyline class="st0" points="437.6,792.8 437.6,963.8 437.6,1026.5 437.6,1066.1 437.6,1126.5 437.6,1172.7 		"/>
		<polyline class="st0" points="202.9,484 203.3,484 223,484 632.6,484 653,484 		"/>
		<line class="st0" x1="822.2" y1="274" x2="822.2" y2="276.9"/>
		<polyline class="st0" points="177,614 179.1,614 212.9,614 643.1,614 677.6,614 		"/>
		<polyline class="st0" points="184.5,756.7 201.8,756.7 654.7,756.7 672.2,756.7 672.2,756.7 		"/>
	</g>
</g>
</svg>
