<?xml version="1.0" encoding="utf-8"?>
<!-- Generator: Adobe Illustrator 22.1.0, SVG Export Plug-In . SVG Version: 6.00 Build 0)  -->
<svg version="1.1" id="Layer_1" xmlns="http://www.w3.org/2000/svg" xmlns:xlink="http://www.w3.org/1999/xlink" x="0px" y="0px"
	 viewBox="0 0 860 1400" style="enable-background:new 0 0 860 1400;" xml:space="preserve">
<style type="text/css">
	.st0{fill:none;stroke:#000000;stroke-miterlimit:10;}
	.st1{fill:#89031A;}
	.st2{fill:#BBBF21;}
	.st3{fill:#736357;}
	.st4{fill:#DD051F;}
</style>
<line class="st0" x1="-482.7" y1="262" x2="-482.7" y2="264.9"/>
<path class="st1" d="M781.4,1080.7c0,31.8-4.2,62.7-12.2,92c-24.1-88.6-82-163.1-159.1-209c21-44.7,39.5-93.6,52.6-145.7
	C735.5,882.2,781.4,976.1,781.4,1080.7z"/>
<path class="st2" d="M495.8,963.8h114.3c-21.1,44.9-44.6,85.6-67.5,120.7c-4.3-1.6-8.7-3-13.2-4.4v-53.6h-36.1
	c2-14,3.1-28.7,3.1-43.7C496.5,976.4,496.2,970,495.8,963.8z"/>
<path class="st3" d="M529.5,1080.1v46.4h-64.8c6.8-15.8,14-35,19.8-56.6C500.3,1072.3,515.4,1075.7,529.5,1080.1z"/>
<path class="st2" d="M529.5,1026.5v53.6c-14.1-4.3-29.2-7.8-45-10.1c3.6-13.6,6.8-28.2,8.9-43.4L529.5,1026.5L529.5,1026.5z"/>
<path class="st1" d="M495.8,963.8c0.4,6.3,0.6,12.6,0.6,19c0,15-1.2,29.7-3.1,43.7h-52.6v-62.8h55.1V963.8z"/>
<path class="st1" d="M495.8,963.8h-55.1V792.9C440.7,792.8,489.8,867.8,495.8,963.8z"/>
<path class="st1" d="M440.7,1026.5h52.6c-2.1,15.3-5.2,29.8-8.9,43.4c-14.1-2.1-28.7-3.4-43.7-3.8V1026.5z"/>
<path class="st1" d="M484.5,1069.9c-5.8,21.6-13,40.8-19.8,56.6h-24v-60.4C455.8,1066.5,470.4,1067.8,484.5,1069.9z"/>
<path class="st1" d="M440.7,1126.5h23.9c-12.5,28.8-23.9,46.2-23.9,46.2V1126.5z"/>
<path class="st4" d="M440.7,1126.5v46.2c0,0-11.4-17.4-23.9-46.2H440.7z"/>
<path class="st4" d="M440.7,1066.1v60.4h-23.9c-7.1-16.3-14.5-36.3-20.4-58.8c11.4-1.1,23.1-1.7,35-1.7
	C434.6,1066,437.7,1066,440.7,1066.1z"/>
<path class="st4" d="M440.7,1026.5v39.6c-3.1-0.1-6.2-0.1-9.3-0.1c-11.9,0-23.6,0.6-35,1.7c-3.4-12.9-6.3-26.8-8.3-41.2H440.7z"/>
<path class="st4" d="M440.7,963.8v62.8h-52.6c-2-14-3.1-28.7-3.1-43.7c0-6.4,0.2-12.8,0.6-19h55.1V963.8z"/>
<path class="st4" d="M440.7,792.8v170.9h-55.1C391.6,867.8,440.7,792.8,440.7,792.8z"/>
<path class="st3" d="M416.8,1126.5h-69.3v-50.4c15.4-3.9,31.8-6.8,48.9-8.4C402.3,1090.2,409.8,1110.2,416.8,1126.5z"/>
<path class="st2" d="M388.1,1026.5c2,14.4,4.9,28.2,8.3,41.2c-17.1,1.7-33.5,4.5-48.9,8.4v-49.6H388.1z"/>
<path class="st2" d="M388.1,1026.5h-40.7v49.6c-9.5,2.4-18.6,5.2-27.2,8.3c-22.9-35.2-46.4-75.8-67.5-120.7h132.9
	c-0.4,6.3-0.6,12.6-0.6,19C385,997.8,386.2,1012.5,388.1,1026.5z"/>
<path class="st4" d="M200.1,818.1c13.1,52,31.7,101,52.6,145.7c-77.1,45.8-135,120.4-159.1,209c-8-29.3-12.2-60.2-12.2-92
	C81.4,976.1,127.4,882.2,200.1,818.1L200.1,818.1z"/>
<polyline class="st0" points="416.8,1126.5 347.5,1126.5 347.5,1076.1 "/>
<polyline class="st0" points="529.5,1080.1 529.5,1126.5 464.7,1126.5 "/>
<path class="st0" d="M662.8,818.1c-13.1,52-31.7,101-52.6,145.7c77.1,45.8,135,120.4,159.1,209c8-29.3,12.2-60.2,12.2-92
	C781.4,976.1,735.5,882.2,662.8,818.1z"/>
<path class="st0" d="M200.1,818.1c13.1,52,31.7,101,52.6,145.7c-77.1,45.8-135,120.4-159.1,209c-8-29.3-12.2-60.2-12.2-92
	C81.4,976.1,127.4,882.2,200.1,818.1"/>
<path class="st0" d="M484.5,1069.9c15.8,2.4,30.9,5.8,45,10.1c4.5,1.4,8.9,2.8,13.2,4.4c22.9-35.2,46.4-75.8,67.5-120.7"/>
<path class="st0" d="M252.7,963.8c21.1,44.9,44.6,85.6,67.5,120.7c8.7-3.2,17.8-5.9,27.2-8.3c15.4-3.9,31.8-6.8,48.9-8.4"/>
<path class="st0" d="M495.8,963.8c0.4,6.3,0.6,12.6,0.6,19c0,15-1.2,29.7-3.1,43.7c-2.1,15.3-5.2,29.8-8.9,43.4
	c-5.8,21.6-13,40.8-19.8,56.6c-12.5,28.8-23.9,46.2-23.9,46.2s-11.4-17.4-23.9-46.2c-7.1-16.3-14.5-36.3-20.4-58.8
	c-3.4-12.9-6.3-26.8-8.3-41.2c-2-14-3.1-28.7-3.1-43.7c0-6.4,0.2-12.8,0.6-19c6-96,55.1-170.9,55.1-170.9S489.8,867.8,495.8,963.8z"
	/>
<polyline class="st0" points="440.7,792.8 440.7,963.8 440.7,1026.5 440.7,1066.1 440.7,1126.5 440.7,1172.7 "/>
<line class="st0" x1="206" y1="484" x2="206.4" y2="484"/>
<line class="st0" x1="825.3" y1="274" x2="825.3" y2="276.9"/>
</svg>
