<?xml version="1.0" encoding="utf-8"?>
<!-- Generator: Adobe Illustrator 22.1.0, SVG Export Plug-In . SVG Version: 6.00 Build 0)  -->
<svg version="1.1" id="Layer_1" xmlns="http://www.w3.org/2000/svg" xmlns:xlink="http://www.w3.org/1999/xlink" x="0px" y="0px"
	 viewBox="0 0 860 1400" style="enable-background:new 0 0 860 1400;" xml:space="preserve">
<style type="text/css">
	.st0{fill:none;stroke:#000000;stroke-miterlimit:10;}
	.st1{fill:#89031A;}
	.st2{fill:#396B4D;}
	.st3{fill:#3981C9;}
	.st4{fill:#D18C42;}
	.st5{fill:#7C7C63;}
	.st6{fill:#BBBF21;}
	.st7{fill:#736357;}
	.st8{fill:#DD051F;}
</style>
<line class="st0" x1="-483.3" y1="262" x2="-483.3" y2="264.9"/>
<path class="st1" d="M780.8,1080.7c0,31.8-4.2,62.7-12.2,92c-24.1-88.6-82-163.1-159.1-209c21-44.7,39.5-93.6,52.6-145.7
	C734.9,882.2,780.8,976.1,780.8,1080.7z"/>
<path class="st2" d="M680.1,614c1.3,16.1,2,32.4,2,48.8c0,32-2.6,63.4-7.4,93.9h-17.5L645.6,614H680.1z"/>
<path class="st3" d="M680.1,614h-34.4l-10.6-130h20.3l0.4-0.1C667.7,525.3,676.4,568.9,680.1,614z"/>
<path class="st4" d="M657.2,756.7h17.5c-3.2,20.9-7.5,41.3-12.5,61.4L657.2,756.7z"/>
<path class="st4" d="M662.2,818.1L662.2,818.1c-13.1,52-31.7,101-52.6,145.7H495.3c-6-96-55.1-170.9-55.1-170.9s-49.1,75-55.1,170.9
	h-133c-21-44.7-39.5-93.6-52.6-145.7l0,0l4.8-61.4h452.9L662.2,818.1z"/>
<polygon class="st2" points="645.6,614 657.2,756.7 204.3,756.7 215.4,614 "/>
<path class="st5" d="M655.8,484l-0.4,0.1h-20.3l-6.3-78.1C638.9,430.9,648.1,457,655.8,484z"/>
<polygon class="st3" points="635.1,484 645.6,614 215.4,614 225.5,484 "/>
<path class="st5" d="M628.8,405.9l6.3,78.1H225.5l5.8-74.2l9.5-2.7l22.5-6.3c37.8-10.5,80.9-17.3,126.8-20.1
	c15-0.9,30.4-1.3,45.9-1.3c15.4,0,30.6,0.5,45.6,1.3c41.8,2.5,81.6,8.4,117,17.4l22,5.6L628.8,405.9z"/>
<path class="st6" d="M495.2,963.8h114.3c-21.1,44.9-44.6,85.6-67.5,120.7c-4.3-1.6-8.7-3-13.2-4.4v-53.6h-36.1
	c2-14,3.1-28.7,3.1-43.7C495.9,976.4,495.6,970,495.2,963.8z"/>
<path class="st7" d="M528.9,1080.1v46.4h-64.8c6.8-15.8,14-35,19.8-56.6C499.7,1072.3,514.8,1075.7,528.9,1080.1z"/>
<path class="st6" d="M528.9,1026.5v53.6c-14.1-4.3-29.2-7.8-45-10.1c3.6-13.6,6.8-28.2,8.9-43.4L528.9,1026.5L528.9,1026.5z"/>
<path class="st1" d="M495.2,963.8c0.4,6.3,0.6,12.6,0.6,19c0,15-1.2,29.7-3.1,43.7h-52.6v-62.8h55.1V963.8z"/>
<path class="st1" d="M495.2,963.8h-55.1V792.9C440.1,792.8,489.2,867.8,495.2,963.8z"/>
<path class="st1" d="M440.1,1026.5h52.6c-2.1,15.3-5.2,29.8-8.9,43.4c-14.1-2.1-28.7-3.4-43.7-3.8V1026.5z"/>
<path class="st1" d="M483.9,1069.9c-5.8,21.6-13,40.8-19.8,56.6h-24v-60.4C455.2,1066.5,469.8,1067.8,483.9,1069.9z"/>
<path class="st1" d="M440.1,1126.5H464c-12.5,28.8-23.9,46.2-23.9,46.2V1126.5z"/>
<path class="st8" d="M440.1,1126.5v46.2c0,0-11.4-17.4-23.9-46.2H440.1z"/>
<path class="st8" d="M440.1,1066.1v60.4h-23.9c-7.1-16.3-14.5-36.3-20.4-58.8c11.4-1.1,23.1-1.7,35-1.7
	C434,1066,437.1,1066,440.1,1066.1z"/>
<path class="st8" d="M440.1,1026.5v39.6c-3.1-0.1-6.2-0.1-9.3-0.1c-11.9,0-23.6,0.6-35,1.7c-3.4-12.9-6.3-26.8-8.3-41.2H440.1z"/>
<path class="st8" d="M440.1,963.8v62.8h-52.6c-2-14-3.1-28.7-3.1-43.7c0-6.4,0.2-12.8,0.6-19h55.1V963.8z"/>
<path class="st8" d="M440.1,792.8v170.9H385C391,867.8,440.1,792.8,440.1,792.8z"/>
<path class="st7" d="M416.2,1126.5h-69.3v-50.4c15.4-3.9,31.8-6.8,48.9-8.4C401.7,1090.2,409.2,1110.2,416.2,1126.5z"/>
<path class="st6" d="M387.5,1026.5c2,14.4,4.9,28.2,8.3,41.2c-17.1,1.7-33.5,4.5-48.9,8.4v-49.6H387.5z"/>
<path class="st6" d="M387.5,1026.5h-40.7v49.6c-9.5,2.4-18.6,5.2-27.2,8.3c-22.9-35.2-46.4-75.8-67.5-120.7H385
	c-0.4,6.3-0.6,12.6-0.6,19C384.4,997.8,385.6,1012.5,387.5,1026.5z"/>
<path class="st5" d="M231.3,409.8l-5.8,74.2h-19.7C213.2,458.4,221.8,433.6,231.3,409.8z"/>
<path class="st3" d="M225.5,484l-10.1,130h-33.8c3.7-45,12.3-88.5,24.2-129.9L225.5,484L225.5,484z"/>
<path class="st8" d="M199.5,818.1c13.1,52,31.7,101,52.6,145.7c-77.1,45.8-135,120.4-159.1,209c-8-29.3-12.2-60.2-12.2-92
	C80.8,976.1,126.8,882.2,199.5,818.1L199.5,818.1z"/>
<path class="st2" d="M215.4,614l-11.1,142.8H187c-4.8-30.5-7.4-61.9-7.4-93.9c0-16.5,0.7-32.7,2-48.8L215.4,614L215.4,614z"/>
<path class="st4" d="M204.3,756.7l-4.8,61.4c-5-20-9.3-40.5-12.5-61.4L204.3,756.7L204.3,756.7z"/>
<polyline class="st0" points="416.2,1126.5 346.9,1126.5 346.9,1076.1 "/>
<polyline class="st0" points="528.9,1080.1 528.9,1126.5 464.1,1126.5 "/>
<path class="st0" d="M662.2,818.1c-13.1,52-31.7,101-52.6,145.7c77.1,45.8,135,120.4,159.1,209c8-29.3,12.2-60.2,12.2-92
	C780.8,976.1,734.9,882.2,662.2,818.1z"/>
<path class="st0" d="M199.5,818.1c13.1,52,31.7,101,52.6,145.7c-77.1,45.8-135,120.4-159.1,209c-8-29.3-12.2-60.2-12.2-92
	C80.8,976.1,126.8,882.2,199.5,818.1"/>
<path class="st0" d="M628.8,405.9c10.1,25,19.3,51.1,27,78c11.9,41.4,20.6,85,24.3,130c1.3,16.1,2,32.4,2,48.8
	c0,32-2.6,63.4-7.4,93.9c-3.2,20.9-7.5,41.3-12.5,61.4"/>
<path class="st0" d="M199.5,818.1c-5-20-9.3-40.5-12.5-61.4c-4.8-30.5-7.4-61.9-7.4-93.9c0-16.5,0.7-32.7,2-48.8
	c3.7-45,12.3-88.5,24.2-129.9c7.4-25.6,16-50.4,25.5-74.2"/>
<path class="st0" d="M483.9,1069.9c15.8,2.4,30.9,5.8,45,10.1c4.5,1.4,8.9,2.8,13.2,4.4c22.9-35.2,46.4-75.8,67.5-120.7"/>
<path class="st0" d="M252.1,963.8c21.1,44.9,44.6,85.6,67.5,120.7c8.7-3.2,17.8-5.9,27.2-8.3c15.4-3.9,31.8-6.8,48.9-8.4"/>
<path class="st0" d="M495.2,963.8c0.4,6.3,0.6,12.6,0.6,19c0,15-1.2,29.7-3.1,43.7c-2.1,15.3-5.2,29.8-8.9,43.4
	c-5.8,21.6-13,40.8-19.8,56.6c-12.5,28.8-23.9,46.2-23.9,46.2s-11.4-17.4-23.9-46.2c-7.1-16.3-14.5-36.3-20.4-58.8
	c-3.4-12.9-6.3-26.8-8.3-41.2c-2-14-3.1-28.7-3.1-43.7c0-6.4,0.2-12.8,0.6-19c6-96,55.1-170.9,55.1-170.9S489.2,867.8,495.2,963.8z"
	/>
<polyline class="st0" points="440.1,792.8 440.1,963.8 440.1,1026.5 440.1,1066.1 440.1,1126.5 440.1,1172.7 "/>
<polyline class="st0" points="205.4,484 205.8,484 225.5,484 635.1,484 655.5,484 "/>
<line class="st0" x1="824.7" y1="274" x2="824.7" y2="276.9"/>
<polyline class="st0" points="179.5,614 181.6,614 215.4,614 645.6,614 680.1,614 "/>
<polyline class="st0" points="187,756.7 204.3,756.7 657.2,756.7 674.7,756.7 674.7,756.7 "/>
</svg>
