<?xml version="1.0" encoding="utf-8"?>
<!-- Generator: Adobe Illustrator 22.1.0, SVG Export Plug-In . SVG Version: 6.00 Build 0)  -->
<svg version="1.1" id="Layer_1" xmlns="http://www.w3.org/2000/svg" xmlns:xlink="http://www.w3.org/1999/xlink" x="0px" y="0px"
	 viewBox="0 0 860 1400" style="enable-background:new 0 0 860 1400;" xml:space="preserve">
<style type="text/css">
	.st0{fill:none;stroke:#000000;stroke-miterlimit:10;}
	.st1{fill:#89031A;}
	.st2{fill:#396B4D;}
	.st3{fill:#D18C42;}
	.st4{fill:#BBBF21;}
	.st5{fill:#736357;}
	.st6{fill:#DD051F;}
	.st7{fill:none;}
</style>
<line class="st0" x1="-475.2" y1="262" x2="-475.2" y2="264.9"/>
<path class="st1" d="M788.9,1080.7c0,31.8-4.2,62.7-12.2,92c-24.1-88.6-82-163.1-159.1-209c21-44.7,39.5-93.6,52.6-145.7
	C743,882.2,788.9,976.1,788.9,1080.7z"/>
<path class="st2" d="M653.7,614l11.6,142.8h17.5c4.8-30.5,7.4-61.9,7.4-93.9c0-16.5-0.7-32.7-2-48.8L653.7,614L653.7,614z"/>
<path class="st3" d="M665.3,756.7h17.5c-3.2,20.9-7.5,41.3-12.5,61.4L665.3,756.7z"/>
<path class="st3" d="M670.3,818.1L670.3,818.1c-13.1,52-31.7,101-52.6,145.7H503.4c-6-96-55.1-170.9-55.1-170.9s-49.1,75-55.1,170.9
	h-133c-21-44.7-39.5-93.6-52.6-145.7l0,0l4.8-61.4h452.9L670.3,818.1z"/>
<polygon class="st2" points="653.7,614 665.3,756.7 212.4,756.7 223.5,614 "/>
<path class="st4" d="M503.3,963.8h114.3c-21.1,44.9-44.6,85.6-67.5,120.7c-4.3-1.6-8.7-3-13.2-4.4v-53.6h-36.1
	c2-14,3.1-28.7,3.1-43.7C504,976.4,503.7,970,503.3,963.8z"/>
<path class="st5" d="M537,1080.1v46.4h-64.8c6.8-15.8,14-35,19.8-56.6C507.8,1072.3,522.9,1075.7,537,1080.1z"/>
<path class="st4" d="M537,1026.5v53.6c-14.1-4.3-29.2-7.8-45-10.1c3.6-13.6,6.8-28.2,8.9-43.4L537,1026.5L537,1026.5z"/>
<path class="st1" d="M503.3,963.8c0.4,6.3,0.6,12.6,0.6,19c0,15-1.2,29.7-3.1,43.7h-52.6v-62.8h55.1V963.8z"/>
<path class="st1" d="M503.3,963.8h-55.1V792.9C448.2,792.8,497.3,867.8,503.3,963.8z"/>
<path class="st1" d="M448.2,1026.5h52.6c-2.1,15.3-5.2,29.8-8.9,43.4c-14.1-2.1-28.7-3.4-43.7-3.8V1026.5z"/>
<path class="st1" d="M492,1069.9c-5.8,21.6-13,40.8-19.8,56.6h-24v-60.4C463.3,1066.5,477.9,1067.8,492,1069.9z"/>
<path class="st1" d="M448.2,1126.5h23.9c-12.5,28.8-23.9,46.2-23.9,46.2V1126.5z"/>
<path class="st6" d="M448.2,1126.5v46.2c0,0-11.4-17.4-23.9-46.2H448.2z"/>
<path class="st6" d="M448.2,1066.1v60.4h-23.9c-7.1-16.3-14.5-36.3-20.4-58.8c11.4-1.1,23.1-1.7,35-1.7
	C442.1,1066,445.2,1066,448.2,1066.1z"/>
<path class="st6" d="M448.2,1026.5v39.6c-3.1-0.1-6.2-0.1-9.3-0.1c-11.9,0-23.6,0.6-35,1.7c-3.4-12.9-6.3-26.8-8.3-41.2H448.2z"/>
<path class="st6" d="M448.2,963.8v62.8h-52.6c-2-14-3.1-28.7-3.1-43.7c0-6.4,0.2-12.8,0.6-19h55.1V963.8z"/>
<path class="st6" d="M448.2,792.8v170.9h-55.1C399.1,867.8,448.2,792.8,448.2,792.8z"/>
<path class="st5" d="M424.3,1126.5H355v-50.4c15.4-3.9,31.8-6.8,48.9-8.4C409.8,1090.2,417.3,1110.2,424.3,1126.5z"/>
<path class="st4" d="M395.6,1026.5c2,14.4,4.9,28.2,8.3,41.2c-17.1,1.7-33.5,4.5-48.9,8.4v-49.6H395.6z"/>
<path class="st4" d="M395.6,1026.5h-40.7v49.6c-9.5,2.4-18.6,5.2-27.2,8.3c-22.9-35.2-46.4-75.8-67.5-120.7h132.9
	c-0.4,6.3-0.6,12.6-0.6,19C392.5,997.8,393.7,1012.5,395.6,1026.5z"/>
<path class="st6" d="M207.6,818.1c13.1,52,31.7,101,52.6,145.7c-77.1,45.8-135,120.4-159.1,209c-8-29.3-12.2-60.2-12.2-92
	C88.9,976.1,134.9,882.2,207.6,818.1L207.6,818.1z"/>
<path class="st2" d="M223.5,614l-11.1,142.8h-17.3c-4.8-30.5-7.4-61.9-7.4-93.9c0-16.5,0.7-32.7,2-48.8L223.5,614L223.5,614z"/>
<path class="st3" d="M212.4,756.7l-4.8,61.4c-5-20-9.3-40.5-12.5-61.4L212.4,756.7L212.4,756.7z"/>
<polyline class="st0" points="424.3,1126.5 355,1126.5 355,1076.1 "/>
<polyline class="st0" points="537,1080.1 537,1126.5 472.2,1126.5 "/>
<path class="st0" d="M670.3,818.1c-13.1,52-31.7,101-52.6,145.7c77.1,45.8,135,120.4,159.1,209c8-29.3,12.2-60.2,12.2-92
	C788.9,976.1,743,882.2,670.3,818.1z"/>
<path class="st0" d="M207.6,818.1c13.1,52,31.7,101,52.6,145.7c-77.1,45.8-135,120.4-159.1,209c-8-29.3-12.2-60.2-12.2-92
	C88.9,976.1,134.9,882.2,207.6,818.1"/>
<path class="st0" d="M688.2,613.9c5.4,68.3-0.4,137.5-17.9,204.2"/>
<path class="st0" d="M207.6,818.1C192.2,751,183.2,682,190,614.3"/>
<path class="st0" d="M492,1069.9c15.8,2.4,30.9,5.8,45,10.1c4.5,1.4,8.9,2.8,13.2,4.4c22.9-35.2,46.4-75.8,67.5-120.7"/>
<path class="st0" d="M260.2,963.8c21.1,44.9,44.6,85.6,67.5,120.7c8.7-3.2,17.8-5.9,27.2-8.3c15.4-3.9,31.8-6.8,48.9-8.4"/>
<path class="st0" d="M503.3,963.8c0.4,6.3,0.6,12.6,0.6,19c0,15-1.2,29.7-3.1,43.7c-2.1,15.3-5.2,29.8-8.9,43.4
	c-5.8,21.6-13,40.8-19.8,56.6c-12.5,28.8-23.9,46.2-23.9,46.2s-11.4-17.4-23.9-46.2c-7.1-16.3-14.5-36.3-20.4-58.8
	c-3.4-12.9-6.3-26.8-8.3-41.2c-2-14-3.1-28.7-3.1-43.7c0-6.4,0.2-12.8,0.6-19c6-96,55.1-170.9,55.1-170.9S497.3,867.8,503.3,963.8z"
	/>
<polyline class="st0" points="448.2,792.8 448.2,963.8 448.2,1026.5 448.2,1066.1 448.2,1126.5 448.2,1172.7 "/>
<line class="st0" x1="213.5" y1="484" x2="213.9" y2="484"/>
<line class="st0" x1="832.8" y1="274" x2="832.8" y2="276.9"/>
<path class="st0" d="M189.6,614c165.6,0,332.6,0,498.6,0"/>
<polyline class="st0" points="195.1,756.7 212.4,756.7 665.3,756.7 682.8,756.7 682.8,756.7 "/>
<path class="st7" d="M164.2,465v149h548V465H164.2z M687.2,613c1,0,3,0,4,0C690.2,613,688.2,613,687.2,613"/>
</svg>
