<?xml version="1.0" encoding="utf-8"?>
<!-- Generator: Adobe Illustrator 22.1.0, SVG Export Plug-In . SVG Version: 6.00 Build 0)  -->
<svg version="1.1" id="Layer_1" xmlns="http://www.w3.org/2000/svg" xmlns:xlink="http://www.w3.org/1999/xlink" x="0px" y="0px"
	 viewBox="0 0 860 1400" style="enable-background:new 0 0 860 1400;" xml:space="preserve">
<style type="text/css">
	.st0{fill:none;stroke:#000000;stroke-miterlimit:10;}
	.st1{fill:#89031A;}
	.st2{fill:#DD051F;}
</style>
<line class="st0" x1="-486.4" y1="262" x2="-486.4" y2="264.9"/>
<path class="st1" d="M777.7,1080.7c0,31.8-4.2,62.7-12.2,92c-24.1-88.6-82-163.1-159.1-209c21-44.7,39.5-93.6,52.6-145.7
	C731.8,882.2,777.7,976.1,777.7,1080.7z"/>
<path class="st1" d="M492.1,963.8c0.4,6.3,0.6,12.6,0.6,19c0,15-1.2,29.7-3.1,43.7H437v-62.8h55.1V963.8z"/>
<path class="st1" d="M492.1,963.8H437V792.9C437,792.8,486.1,867.8,492.1,963.8z"/>
<path class="st1" d="M437,1026.5h52.6c-2.1,15.3-5.2,29.8-8.9,43.4c-14.1-2.1-28.7-3.4-43.7-3.8V1026.5z"/>
<path class="st1" d="M480.8,1069.9c-5.8,21.6-13,40.8-19.8,56.6h-24v-60.4C452.1,1066.5,466.7,1067.8,480.8,1069.9z"/>
<path class="st1" d="M437,1126.5h23.9c-12.5,28.8-23.9,46.2-23.9,46.2V1126.5z"/>
<path class="st2" d="M437,1126.5v46.2c0,0-11.4-17.4-23.9-46.2H437z"/>
<path class="st2" d="M437,1066.1v60.4h-23.9c-7.1-16.3-14.5-36.3-20.4-58.8c11.4-1.1,23.1-1.7,35-1.7
	C430.9,1066,434,1066,437,1066.1z"/>
<path class="st2" d="M437,1026.5v39.6c-3.1-0.1-6.2-0.1-9.3-0.1c-11.9,0-23.6,0.6-35,1.7c-3.4-12.9-6.3-26.8-8.3-41.2H437z"/>
<path class="st2" d="M437,963.8v62.8h-52.6c-2-14-3.1-28.7-3.1-43.7c0-6.4,0.2-12.8,0.6-19H437V963.8z"/>
<path class="st2" d="M437,792.8v170.9h-55.1C387.9,867.8,437,792.8,437,792.8z"/>
<path class="st2" d="M196.4,818.1c13.1,52,31.7,101,52.6,145.7c-77.1,45.8-135,120.4-159.1,209c-8-29.3-12.2-60.2-12.2-92
	C77.7,976.1,123.7,882.2,196.4,818.1L196.4,818.1z"/>
<path class="st0" d="M659.1,818.1c-13.1,52-31.7,101-52.6,145.7c77.1,45.8,135,120.4,159.1,209c8-29.3,12.2-60.2,12.2-92
	C777.7,976.1,731.8,882.2,659.1,818.1z"/>
<path class="st0" d="M196.4,818.1c13.1,52,31.7,101,52.6,145.7c-77.1,45.8-135,120.4-159.1,209c-8-29.3-12.2-60.2-12.2-92
	C77.7,976.1,123.7,882.2,196.4,818.1"/>
<path class="st0" d="M480.8,1069.9c15.8,2.4,30.9,5.8,45,10.1c4.5,1.4,8.9,2.8,13.2,4.4c22.9-35.2,46.4-75.8,67.5-120.7"/>
<path class="st0" d="M249,963.8c21.1,44.9,44.6,85.6,67.5,120.7c8.7-3.2,17.8-5.9,27.2-8.3c15.4-3.9,31.8-6.8,48.9-8.4"/>
<path class="st0" d="M492.1,963.8c0.4,6.3,0.6,12.6,0.6,19c0,15-1.2,29.7-3.1,43.7c-2.1,15.3-5.2,29.8-8.9,43.4
	c-5.8,21.6-13,40.8-19.8,56.6c-12.5,28.8-23.9,46.2-23.9,46.2s-11.4-17.4-23.9-46.2c-7.1-16.3-14.5-36.3-20.4-58.8
	c-3.4-12.9-6.3-26.8-8.3-41.2c-2-14-3.1-28.7-3.1-43.7c0-6.4,0.2-12.8,0.6-19c6-96,55.1-170.9,55.1-170.9S486.1,867.8,492.1,963.8z"
	/>
<polyline class="st0" points="437,792.8 437,963.8 437,1026.5 437,1066.1 437,1126.5 437,1172.7 "/>
<line class="st0" x1="202.3" y1="484" x2="202.7" y2="484"/>
<line class="st0" x1="821.6" y1="274" x2="821.6" y2="276.9"/>
</svg>
