<?xml version="1.0" encoding="utf-8"?>
<!-- Generator: Adobe Illustrator 22.1.0, SVG Export Plug-In . SVG Version: 6.00 Build 0)  -->
<svg version="1.1" id="Layer_1" xmlns="http://www.w3.org/2000/svg" xmlns:xlink="http://www.w3.org/1999/xlink" x="0px" y="0px"
	 width="552.4px" height="92px" viewBox="0 0 276.2 46" style="enable-background:new 0 0 276.2 46;" xml:space="preserve">
<style type="text/css">
	.st0{fill:#FFFFFF;}
</style>
<g>
	<path class="st0" d="M27.7,20.1h-4.6v18h-7.3v-18h-4.7v-7.4h16.6V20.1z"/>
	<path class="st0" d="M39.9,38.1l-2.8-6.6l-0.6,0v6.6h-6.3V12.7h7.2c4.9,0.1,8.9,4.2,8.9,9.1c0,3.1-1.5,5.8-3.8,7.4l4.4,8.9H39.9z
		 M36.9,19.7v4.6c1,0,2.6-0.7,2.6-2.6C39.5,20.2,37.9,19.8,36.9,19.7z"/>
	<path class="st0" d="M55.9,38.1h-7.2V12.7h7.2V38.1z M54.8,5.5c2,0,3.6,1.6,3.6,3.6c0,2-1.6,3.6-3.6,3.6c-2,0-3.6-1.6-3.6-3.6
		C51.3,7.1,52.9,5.5,54.8,5.5z"/>
	<path class="st0" d="M67,12.7l5,10.7l5-10.7h8.2L71.9,39.6L58.8,12.7H67z"/>
	<path class="st0" d="M94.8,38.1h-7.2V12.7h7.2V38.1z M93.7,5.5c2,0,3.6,1.6,3.6,3.6c0,2-1.6,3.6-3.6,3.6c-2,0-3.6-1.6-3.6-3.6
		C90.1,7.1,91.7,5.5,93.7,5.5z"/>
	<path class="st0" d="M116.9,38.1h-6V34h-5.2c0,0,0,3.1,0,4.1h-6.4c0-0.9-0.1-2.6,0-4.1h-1.6v-6.3h2.2c0.5-3.1,1.5-6.3,3.1-9
		c4.1-6.8,11.5-6.2,13.9-6V38.1z M106,27.7h4.9v-7.3c-0.9,0.5-2.1,1.2-3.2,3.1c-1,1.7-1.3,4.3-1.3,4.3H106z"/>
	<path class="st0" d="M136.7,30.9v7.2h-17.3V12.7h7.2v18.2H136.7z"/>
	<path class="st0" d="M171.7,20.1h-4.6v18h-7.3v-18h-4.7v-7.4h16.6V20.1z"/>
	<path class="st0" d="M183.9,38.1l-2.8-6.6l-0.6,0v6.6h-6.3V12.7h7.2c4.9,0.1,8.9,4.2,8.9,9.1c0,3.1-1.5,5.8-3.8,7.4l4.4,8.9H183.9z
		 M180.9,19.7v4.6c1,0,2.6-0.7,2.6-2.6C183.5,20.2,181.9,19.8,180.9,19.7z"/>
	<path class="st0" d="M199.9,38.1h-7.2V12.7h7.2V38.1z M198.8,5.5c2,0,3.6,1.6,3.6,3.6c0,2-1.6,3.6-3.6,3.6c-2,0-3.6-1.6-3.6-3.6
		C195.2,7.1,196.9,5.5,198.8,5.5z"/>
	<path class="st0" d="M211,12.7l5,10.7l5-10.7h8.2l-13.1,26.9l-13.1-26.9H211z"/>
	<path class="st0" d="M238.8,38.1h-7.2V12.7h7.2V38.1z M237.7,5.5c2,0,3.6,1.6,3.6,3.6c0,2-1.6,3.6-3.6,3.6c-2,0-3.6-1.6-3.6-3.6
		C234.1,7.1,235.7,5.5,237.7,5.5z"/>
	<path class="st0" d="M260.9,38.1h-6V34h-5.2c0,0,0,3.1,0,4.1h-6.4c0-0.9-0.1-2.6,0-4.1h-1.6v-6.3h2.2c0.5-3.1,1.5-6.3,3.1-9
		c4.1-6.8,11.5-6.2,13.9-6V38.1z M250,27.7h4.9v-7.3c-0.9,0.5-2.1,1.2-3.2,3.1c-1,1.7-1.3,4.3-1.3,4.3H250z"/>
</g>
</svg>
